<?xml version="1.0" ?><svg fill="none" height="24" viewBox="0 0 24 24" width="24" xmlns="http://www.w3.org/2000/svg"><path clip-rule="evenodd" d="M14.8783 4.08306C12.9851 3.63898 11.0149 3.63898 9.12171 4.08306C6.62161 4.6695 4.6695 6.6216 4.08306 9.12171C3.63898 11.0149 3.63898 12.9851 4.08306 14.8783C4.6695 17.3784 6.62161 19.3305 9.12171 19.9169C11.0149 20.361 12.9851 20.361 14.8783 19.9169C17.3784 19.3305 19.3305 17.3784 19.9169 14.8783C20.361 12.9851 20.361 11.0149 19.9169 9.12171C19.3305 6.62161 17.3784 4.6695 14.8783 4.08306ZM8.77916 2.6227C10.8976 2.12577 13.1024 2.12577 15.2208 2.6227C18.2756 3.33924 20.6608 5.72441 21.3773 8.77916C21.8742 10.8976 21.8742 13.1024 21.3773 15.2208C20.6608 18.2756 18.2756 20.6608 15.2208 21.3773C13.1024 21.8742 10.8976 21.8742 8.77916 21.3773C5.72441 20.6608 3.33924 18.2756 2.6227 15.2209C2.12577 13.1024 2.12577 10.8976 2.6227 8.77915C3.33924 5.72441 5.72441 3.33924 8.77916 2.6227Z" fill="#17a2b8" fill-rule="evenodd"/><path clip-rule="evenodd" d="M7.42382 9.01988C7.689 8.70167 8.16192 8.65868 8.48013 8.92385L10.5583 10.6556C11.3978 11.3553 11.3978 12.6448 10.5583 13.3444L8.48013 15.0762C8.16192 15.3414 7.689 15.2984 7.42382 14.9802C7.15865 14.6619 7.20164 14.189 7.51985 13.9239L9.59798 12.1921C9.71792 12.0921 9.71792 11.9079 9.59799 11.808L7.51985 10.0762C7.20164 9.81101 7.15865 9.33809 7.42382 9.01988Z" fill="#17a2b8" fill-rule="evenodd"/><path clip-rule="evenodd" d="M11.75 14.5C11.75 14.0858 12.0858 13.75 12.5 13.75H16C16.4142 13.75 16.75 14.0858 16.75 14.5C16.75 14.9142 16.4142 15.25 16 15.25H12.5C12.0858 15.25 11.75 14.9142 11.75 14.5Z" fill="#17a2b8" fill-rule="evenodd"/></svg>